<svg width="34" height="43" viewBox="0 0 34 43" fill="none" xmlns="http://www.w3.org/2000/svg">
<path d="M7.56719 36.8555V38.4375H3.19024V36.8555H7.56719ZM3.87578 33.4688V42H1.81914V33.4688H3.87578ZM8.95 33.4688V42H6.89922V33.4688H8.95ZM10.1168 38.8945V38.7715C10.1168 38.3066 10.1832 37.8789 10.316 37.4883C10.4488 37.0938 10.6441 36.752 10.902 36.4629C11.1598 36.1738 11.4781 35.9492 11.857 35.7891C12.2359 35.625 12.6734 35.543 13.1695 35.543C13.6695 35.543 14.109 35.625 14.4879 35.7891C14.8707 35.9492 15.191 36.1738 15.4488 36.4629C15.7066 36.752 15.902 37.0938 16.0348 37.4883C16.1676 37.8789 16.234 38.3066 16.234 38.7715V38.8945C16.234 39.3555 16.1676 39.7832 16.0348 40.1777C15.902 40.5684 15.7066 40.9102 15.4488 41.2031C15.191 41.4922 14.8727 41.7168 14.4938 41.877C14.1148 42.0371 13.6773 42.1172 13.1813 42.1172C12.6852 42.1172 12.2457 42.0371 11.8629 41.877C11.4801 41.7168 11.1598 41.4922 10.902 41.2031C10.6441 40.9102 10.4488 40.5684 10.316 40.1777C10.1832 39.7832 10.1168 39.3555 10.1168 38.8945ZM12.0914 38.7715V38.8945C12.0914 39.1328 12.109 39.3555 12.1441 39.5625C12.1793 39.7695 12.2379 39.9512 12.3199 40.1074C12.402 40.2598 12.5133 40.3789 12.6539 40.4648C12.7945 40.5508 12.9703 40.5938 13.1813 40.5938C13.3883 40.5938 13.5602 40.5508 13.6969 40.4648C13.8375 40.3789 13.9488 40.2598 14.0309 40.1074C14.1129 39.9512 14.1715 39.7695 14.2066 39.5625C14.2418 39.3555 14.2594 39.1328 14.2594 38.8945V38.7715C14.2594 38.541 14.2418 38.3242 14.2066 38.1211C14.1715 37.9141 14.1129 37.7324 14.0309 37.5762C13.9488 37.416 13.8375 37.291 13.6969 37.2012C13.5563 37.1113 13.3805 37.0664 13.1695 37.0664C12.9625 37.0664 12.7887 37.1113 12.648 37.2012C12.5113 37.291 12.402 37.416 12.3199 37.5762C12.2379 37.7324 12.1793 37.9141 12.1441 38.1211C12.109 38.3242 12.0914 38.541 12.0914 38.7715ZM19.3051 37.002V42H17.3305V35.6602H19.182L19.3051 37.002ZM19.0648 38.6133L18.6137 38.625C18.6137 38.1797 18.6664 37.7695 18.7719 37.3945C18.8773 37.0195 19.0336 36.6934 19.2406 36.416C19.4477 36.1387 19.7016 35.9238 20.0023 35.7715C20.307 35.6191 20.6586 35.543 21.057 35.543C21.3344 35.543 21.5863 35.5859 21.8129 35.6719C22.0395 35.7539 22.2348 35.8848 22.3988 36.0645C22.5629 36.2402 22.6879 36.4707 22.7738 36.7559C22.8637 37.0371 22.9086 37.375 22.9086 37.7695V42H20.934V38.0215C20.934 37.752 20.9027 37.5488 20.8402 37.4121C20.7816 37.2754 20.6957 37.1836 20.5824 37.1367C20.4691 37.0898 20.3305 37.0664 20.1664 37.0664C19.9945 37.0664 19.8402 37.1055 19.7035 37.1836C19.5668 37.2617 19.4496 37.3711 19.352 37.5117C19.2582 37.6484 19.1859 37.8105 19.1352 37.998C19.0883 38.1855 19.0648 38.3906 19.0648 38.6133ZM22.6859 38.6133L22.1352 38.625C22.1352 38.1797 22.184 37.7695 22.2816 37.3945C22.3832 37.0195 22.5336 36.6934 22.7328 36.416C22.9359 36.1387 23.1879 35.9238 23.4887 35.7715C23.7895 35.6191 24.1391 35.543 24.5375 35.543C24.8266 35.543 25.0922 35.5859 25.3344 35.6719C25.5766 35.7578 25.7855 35.8965 25.9613 36.0879C26.1371 36.2793 26.2738 36.5332 26.3715 36.8496C26.4691 37.1621 26.518 37.5488 26.518 38.0098V42H24.5375V38.0098C24.5375 37.748 24.5063 37.5508 24.4438 37.418C24.3852 37.2812 24.2992 37.1895 24.1859 37.1426C24.0727 37.0918 23.9379 37.0664 23.7816 37.0664C23.5941 37.0664 23.432 37.1055 23.2953 37.1836C23.1586 37.2617 23.0434 37.3711 22.9496 37.5117C22.8598 37.6484 22.7934 37.8105 22.7504 37.998C22.7074 38.1855 22.6859 38.3906 22.6859 38.6133ZM30.9191 42.1172C30.4035 42.1172 29.9426 42.0371 29.5363 41.877C29.1301 41.7129 28.7863 41.4883 28.5051 41.2031C28.2277 40.918 28.0148 40.5898 27.8664 40.2188C27.7219 39.8477 27.6496 39.4551 27.6496 39.041V38.8184C27.6496 38.3535 27.7141 37.9238 27.843 37.5293C27.9719 37.1309 28.1633 36.7832 28.4172 36.4863C28.6711 36.1895 28.9895 35.959 29.3723 35.7949C29.7551 35.627 30.2004 35.543 30.7082 35.543C31.1574 35.543 31.5598 35.6152 31.9152 35.7598C32.2707 35.9043 32.5715 36.1113 32.8176 36.3809C33.0676 36.6504 33.257 36.9766 33.3859 37.3594C33.5188 37.7422 33.5852 38.1719 33.5852 38.6484V39.4512H28.4055V38.2148H31.6574V38.0625C31.6613 37.8516 31.6242 37.6719 31.5461 37.5234C31.4719 37.375 31.3625 37.2617 31.218 37.1836C31.0734 37.1055 30.8977 37.0664 30.6906 37.0664C30.4758 37.0664 30.298 37.1133 30.1574 37.207C30.0207 37.3008 29.9133 37.4297 29.8352 37.5938C29.7609 37.7539 29.7082 37.9395 29.677 38.1504C29.6457 38.3613 29.6301 38.584 29.6301 38.8184V39.041C29.6301 39.2754 29.6613 39.4883 29.7238 39.6797C29.7902 39.8711 29.884 40.0352 30.0051 40.1719C30.1301 40.3047 30.2785 40.4082 30.4504 40.4824C30.6262 40.5566 30.8254 40.5938 31.048 40.5938C31.3176 40.5938 31.5832 40.543 31.8449 40.4414C32.1066 40.3398 32.3313 40.1719 32.5188 39.9375L33.4152 41.0039C33.2863 41.1875 33.1027 41.3652 32.8645 41.5371C32.6301 41.709 32.3488 41.8496 32.0207 41.959C31.6926 42.0645 31.3254 42.1172 30.9191 42.1172Z" fill="#FFDD06"/>
<path d="M7 17L16.293 7.707C16.6835 7.31662 17.3165 7.31662 17.707 7.707L27 17H25V25C25 25.5523 24.5523 26 24 26H19V19H15V26H10C9.44772 26 9 25.5523 9 25V17H7Z" fill="#FFDD06"/>
</svg>
