<svg width="125" height="106" viewBox="0 0 125 106" fill="none" xmlns="http://www.w3.org/2000/svg">
<path d="M30.5078 97.9961C30.9688 98.0039 31.3906 97.918 31.7734 97.7383C32.1562 97.5586 32.4727 97.3008 32.7227 96.9648C32.9805 96.6289 33.1602 96.2422 33.2617 95.8047L35.875 95.793C35.7734 96.6992 35.4531 97.4883 34.9141 98.1602C34.3828 98.832 33.7188 99.3516 32.9219 99.7188C32.1328 100.078 31.2969 100.25 30.4141 100.234C29.5156 100.219 28.7461 100.035 28.1055 99.6836C27.4727 99.332 26.9609 98.8594 26.5703 98.2656C26.1797 97.6719 25.9062 97 25.75 96.25C25.6016 95.4922 25.5664 94.707 25.6445 93.8945L25.6914 93.4727C25.7852 92.6055 25.9922 91.7852 26.3125 91.0117C26.6406 90.2383 27.0742 89.5547 27.6133 88.9609C28.1602 88.3594 28.8047 87.8906 29.5469 87.5547C30.2891 87.2188 31.125 87.0625 32.0547 87.0859C32.9922 87.1016 33.8008 87.3164 34.4805 87.7305C35.1602 88.1445 35.6797 88.7109 36.0391 89.4297C36.3984 90.1406 36.5742 90.9531 36.5664 91.8672L33.9766 91.8555C33.9766 91.418 33.9023 91.0117 33.7539 90.6367C33.6133 90.2539 33.3867 89.9453 33.0742 89.7109C32.7695 89.4688 32.3711 89.3398 31.8789 89.3242C31.3008 89.3086 30.8047 89.4219 30.3906 89.6641C29.9844 89.9062 29.6445 90.2344 29.3711 90.6484C29.1055 91.0625 28.8945 91.5195 28.7383 92.0195C28.5898 92.5117 28.4883 93 28.4336 93.4844L28.3867 93.8945C28.3477 94.3086 28.332 94.7539 28.3398 95.2305C28.3555 95.6992 28.4297 96.1406 28.5625 96.5547C28.6953 96.9688 28.9141 97.3086 29.2188 97.5742C29.5312 97.8398 29.9609 97.9805 30.5078 97.9961ZM44.6406 97.457L45.6016 91.375C45.6484 90.9688 45.6211 90.6016 45.5195 90.2734C45.418 89.9453 45.2305 89.6875 44.957 89.5C44.6914 89.3047 44.3398 89.2031 43.9023 89.1953C43.5117 89.1875 43.1445 89.2539 42.8008 89.3945C42.457 89.5273 42.1641 89.7266 41.9219 89.9922C41.6875 90.2578 41.5312 90.582 41.4531 90.9648L38.6992 90.9766C38.7461 90.3125 38.9414 89.7344 39.2852 89.2422C39.6367 88.7422 40.0781 88.332 40.6094 88.0117C41.1484 87.6836 41.7266 87.4453 42.3438 87.2969C42.9688 87.1406 43.5781 87.0664 44.1719 87.0742C45.0312 87.0898 45.793 87.2734 46.457 87.625C47.1211 87.9766 47.625 88.4727 47.9688 89.1133C48.3203 89.7539 48.4531 90.5273 48.3672 91.4336L47.4414 97.082C47.3711 97.5273 47.3203 97.9844 47.2891 98.4531C47.2656 98.9141 47.3281 99.3594 47.4766 99.7891L47.4531 100L44.7227 100.012C44.6055 99.5977 44.5469 99.1758 44.5469 98.7461C44.5469 98.3086 44.5781 97.8789 44.6406 97.457ZM45.918 92.2891L45.6367 94.0352L43.8086 94.0234C43.4336 94.0234 43.0469 94.0586 42.6484 94.1289C42.2578 94.1992 41.8906 94.3203 41.5469 94.4922C41.2031 94.6641 40.9141 94.8984 40.6797 95.1953C40.4453 95.4844 40.3008 95.8477 40.2461 96.2852C40.207 96.6367 40.2461 96.9414 40.3633 97.1992C40.4883 97.4492 40.6758 97.6484 40.9258 97.7969C41.1758 97.9453 41.4727 98.0234 41.8164 98.0312C42.2773 98.0391 42.7305 97.9492 43.1758 97.7617C43.6289 97.5742 44.0195 97.3086 44.3477 96.9648C44.6836 96.6133 44.9141 96.2109 45.0391 95.7578L45.7773 97.0234C45.6055 97.5 45.3633 97.9375 45.0508 98.3359C44.7461 98.7344 44.3906 99.0781 43.9844 99.3672C43.5781 99.6562 43.1328 99.8789 42.6484 100.035C42.1719 100.191 41.6797 100.266 41.1719 100.258C40.4688 100.242 39.8281 100.082 39.25 99.7773C38.6719 99.4648 38.2148 99.0312 37.8789 98.4766C37.543 97.9219 37.3945 97.2812 37.4336 96.5547C37.4727 95.7344 37.6797 95.0508 38.0547 94.5039C38.4375 93.9492 38.9258 93.5117 39.5195 93.1914C40.1211 92.8633 40.7773 92.6289 41.4883 92.4883C42.1992 92.3477 42.9023 92.2773 43.5977 92.2773L45.918 92.2891ZM57.3789 96.4961C57.4414 96.0664 57.3477 95.7344 57.0977 95.5C56.8477 95.2578 56.5352 95.0742 56.1602 94.9492C55.7852 94.8242 55.4414 94.7227 55.1289 94.6445C54.6523 94.5273 54.1758 94.3789 53.6992 94.1992C53.2305 94.0117 52.8008 93.7773 52.4102 93.4961C52.0195 93.2148 51.7109 92.8711 51.4844 92.4648C51.2578 92.0508 51.1562 91.5586 51.1797 90.9883C51.2109 90.332 51.3828 89.7578 51.6953 89.2656C52.0078 88.7734 52.4102 88.3633 52.9023 88.0352C53.4023 87.707 53.9492 87.4648 54.543 87.3086C55.1367 87.1523 55.7266 87.0781 56.3125 87.0859C57.1328 87.1016 57.8867 87.2617 58.5742 87.5664C59.2695 87.8711 59.8242 88.3203 60.2383 88.9141C60.6602 89.5078 60.8672 90.2422 60.8594 91.1172L58.1172 91.1055C58.1328 90.7148 58.0625 90.3789 57.9062 90.0977C57.7578 89.8086 57.5391 89.5859 57.25 89.4297C56.9609 89.2734 56.6133 89.1914 56.207 89.1836C55.8555 89.1758 55.5078 89.2344 55.1641 89.3594C54.8281 89.4844 54.5391 89.6719 54.2969 89.9219C54.0547 90.1719 53.9062 90.4883 53.8516 90.8711C53.8047 91.168 53.8477 91.4141 53.9805 91.6094C54.1133 91.7969 54.2969 91.9492 54.5312 92.0664C54.7656 92.1836 55.0117 92.2812 55.2695 92.3594C55.5352 92.4297 55.7734 92.4883 55.9844 92.5352C56.6484 92.7148 57.3008 92.9453 57.9414 93.2266C58.582 93.5 59.1055 93.8867 59.5117 94.3867C59.918 94.8789 60.1016 95.5273 60.0625 96.332C60.0391 97.0195 59.8594 97.6133 59.5234 98.1133C59.1875 98.6055 58.7578 99.0117 58.2344 99.332C57.7109 99.6445 57.1367 99.875 56.5117 100.023C55.8945 100.172 55.2852 100.242 54.6836 100.234C53.8555 100.219 53.0742 100.047 52.3398 99.7188C51.6133 99.3906 51.0273 98.918 50.582 98.3008C50.1445 97.6758 49.9258 96.9141 49.9258 96.0156L52.5859 96.0273C52.5859 96.4805 52.6758 96.8633 52.8555 97.1758C53.043 97.4883 53.3008 97.7266 53.6289 97.8906C53.9648 98.0469 54.3555 98.1289 54.8008 98.1367C55.168 98.1367 55.5352 98.0859 55.9023 97.9844C56.2773 97.875 56.5977 97.6992 56.8633 97.457C57.1367 97.2148 57.3086 96.8945 57.3789 96.4961ZM67.6445 82L64.5156 100H61.7617L64.8906 82H67.6445ZM65.2539 93.1914H64.3867C64.4883 92.457 64.6719 91.7266 64.9375 91C65.2109 90.2656 65.5781 89.6016 66.0391 89.0078C66.5 88.4062 67.0547 87.9297 67.7031 87.5781C68.3516 87.2266 69.1016 87.0625 69.9531 87.0859C70.6484 87.1016 71.2266 87.2383 71.6875 87.4961C72.1562 87.7539 72.5234 88.1055 72.7891 88.5508C73.0547 88.9883 73.2305 89.4922 73.3164 90.0625C73.4023 90.625 73.4102 91.2227 73.3398 91.8555L71.9805 100H69.2031L70.5859 91.8203C70.6328 91.3594 70.6172 90.9453 70.5391 90.5781C70.4609 90.2109 70.2891 89.918 70.0234 89.6992C69.7578 89.4727 69.3711 89.3555 68.8633 89.3477C68.3164 89.332 67.832 89.4336 67.4102 89.6523C66.9961 89.8711 66.6406 90.168 66.3438 90.543C66.0547 90.918 65.8203 91.3359 65.6406 91.7969C65.4609 92.2578 65.332 92.7227 65.2539 93.1914ZM79.2578 89.9219L76.6562 104.875H73.8906L76.9375 87.3203H79.4805L79.2578 89.9219ZM86.6172 93.4727L86.5938 93.7188C86.5 94.4844 86.3164 95.2578 86.043 96.0391C85.7773 96.8125 85.4141 97.5234 84.9531 98.1719C84.5 98.8125 83.9414 99.3242 83.2773 99.707C82.6133 100.09 81.832 100.27 80.9336 100.246C80.1445 100.23 79.4805 100.043 78.9414 99.6836C78.4023 99.3164 77.9727 98.8398 77.6523 98.2539C77.332 97.668 77.1055 97.0273 76.9727 96.332C76.8477 95.6289 76.8008 94.9336 76.832 94.2461L76.9492 93.3086C77.0742 92.5664 77.2852 91.8242 77.582 91.082C77.8867 90.3398 78.2773 89.6641 78.7539 89.0547C79.2305 88.4375 79.7969 87.9492 80.4531 87.5898C81.1094 87.2305 81.8633 87.0625 82.7148 87.0859C83.582 87.1094 84.2891 87.3164 84.8359 87.707C85.3828 88.0977 85.7969 88.6055 86.0781 89.2305C86.3672 89.8555 86.5469 90.5391 86.6172 91.2812C86.6953 92.0234 86.6953 92.7539 86.6172 93.4727ZM83.8281 93.707L83.8633 93.4492C83.9023 93.0508 83.9141 92.6172 83.8984 92.1484C83.8906 91.6797 83.8242 91.2383 83.6992 90.8242C83.5742 90.4023 83.3594 90.0547 83.0547 89.7812C82.7578 89.5078 82.3438 89.3633 81.8125 89.3477C81.3281 89.3242 80.8906 89.4023 80.5 89.582C80.1094 89.7539 79.7656 89.9961 79.4688 90.3086C79.1719 90.6211 78.9219 90.9766 78.7188 91.375C78.5234 91.7734 78.3828 92.1875 78.2969 92.6172L77.9336 94.9141C77.9102 95.4297 77.9805 95.9219 78.1445 96.3906C78.3164 96.8516 78.582 97.2305 78.9414 97.5273C79.3086 97.8242 79.7734 97.9805 80.3359 97.9961C80.9141 98.0117 81.4102 97.8906 81.8242 97.6328C82.2383 97.375 82.582 97.0312 82.8555 96.6016C83.1289 96.1641 83.3438 95.6914 83.5 95.1836C83.6641 94.668 83.7734 94.1758 83.8281 93.707ZM93.5312 100.234C92.6641 100.219 91.8945 100.051 91.2227 99.7305C90.5586 99.4023 90.0078 98.9609 89.5703 98.4062C89.1328 97.8438 88.8164 97.1992 88.6211 96.4727C88.4258 95.7383 88.3594 94.957 88.4219 94.1289L88.4688 93.6484C88.5547 92.7969 88.7617 91.9766 89.0898 91.1875C89.418 90.3906 89.8555 89.6836 90.4023 89.0664C90.957 88.4414 91.6094 87.9492 92.3594 87.5898C93.1094 87.2305 93.9453 87.0625 94.8672 87.0859C95.75 87.1016 96.4961 87.2852 97.1055 87.6367C97.7148 87.9883 98.1992 88.457 98.5586 89.043C98.918 89.6211 99.1562 90.2773 99.2734 91.0117C99.3984 91.7461 99.418 92.5078 99.332 93.2969L99.168 94.5039H89.6523L89.9805 92.4766L96.6953 92.4883L96.7422 92.2422C96.8125 91.75 96.7852 91.2852 96.6602 90.8477C96.543 90.4102 96.3242 90.0508 96.0039 89.7695C95.6836 89.4883 95.2539 89.3398 94.7148 89.3242C94.1289 89.3086 93.625 89.4297 93.2031 89.6875C92.7891 89.9453 92.4453 90.293 92.1719 90.7305C91.8984 91.168 91.6836 91.6445 91.5273 92.1602C91.3789 92.668 91.2734 93.1641 91.2109 93.6484L91.1641 94.1172C91.1172 94.5781 91.1289 95.0352 91.1992 95.4883C91.2695 95.9414 91.4062 96.3555 91.6094 96.7305C91.8125 97.0977 92.0938 97.3984 92.4531 97.6328C92.8125 97.8594 93.2578 97.9805 93.7891 97.9961C94.4531 98.0117 95.0547 97.875 95.5938 97.5859C96.1406 97.2891 96.6367 96.9062 97.082 96.4375L98.4414 97.8789C98.082 98.418 97.6367 98.8633 97.1055 99.2148C96.582 99.5664 96.0117 99.8281 95.3945 100C94.7852 100.164 94.1641 100.242 93.5312 100.234Z" fill="#FFDD06"/>
<g clip-path="url(#clip0_2312_11235)">
<path d="M64.9987 77.9975C86.5371 77.9975 103.997 60.5371 103.997 38.9987C103.997 17.4603 86.5371 0 64.9987 0C43.4603 0 26 17.4603 26 38.9987C26 60.5371 43.4603 77.9975 64.9987 77.9975Z" fill="#FFDD06"/>
<path d="M65 67.5C81.1543 67.5 94.25 54.4043 94.25 38.25C94.25 22.0957 81.1543 9 65 9C48.8457 9 35.75 22.0957 35.75 38.25C35.75 54.4043 48.8457 67.5 65 67.5Z" fill="#2C2C2C"/>
<path d="M77.8209 3.54465L70.3159 19.5108L74.0591 21.2703L81.5641 5.30417L77.8209 3.54465Z" fill="#FFDD06"/>
<path d="M53.5766 54.9492L46.0928 70.9259L49.8385 72.6805L57.3223 56.7037L53.5766 54.9492Z" fill="#FFDD06"/>
<path d="M79.5922 51.3665C78.4134 54.1104 76.7315 56.2954 74.5465 57.9265C72.3667 59.5372 69.8082 60.462 66.8687 60.6983C63.947 60.9397 60.8906 60.4595 57.6945 59.2578C52.4252 57.2735 48.9217 53.9961 47.1839 49.423C45.4461 44.8498 45.7561 39.4306 48.1112 33.1705L48.8582 31.1863C50.3368 27.2559 52.3084 24.0776 54.7728 21.6513C57.2626 19.2123 60.0929 17.6777 63.2661 17.0477C66.4444 16.3998 69.7244 16.7097 73.1034 17.9826C77.9688 19.8144 81.3961 22.571 83.3854 26.2549C85.3823 29.921 85.7355 34.0775 84.4448 38.7294L74.8057 35.1014C75.6517 32.6319 75.6949 30.6477 74.9403 29.1462C74.1832 27.6472 72.6207 26.4505 70.2529 25.5588C67.8469 24.6543 65.7458 24.8906 63.9495 26.2676C62.1533 27.6446 60.4841 30.2971 58.942 34.2249L57.8749 37.0628C56.2641 41.3412 55.6467 44.5983 56.0202 46.8366C56.4115 49.08 57.9206 50.6958 60.5476 51.6841C62.7707 52.52 64.666 52.6369 66.2336 52.0322C67.8037 51.4275 69.0511 49.9997 69.9835 47.7512L79.5922 51.3665Z" fill="#FFDD06"/>
</g>
<defs>
<clipPath id="clip0_2312_11235">
<rect width="78" height="78" fill="white" transform="translate(26)"/>
</clipPath>
</defs>
</svg>
