<svg width="52" height="44" viewBox="0 0 52 44" fill="none" xmlns="http://www.w3.org/2000/svg">
<path d="M17 23V20.625C17 18.0125 21.275 15.875 26.5 15.875C31.725 15.875 36 18.0125 36 20.625V23H17ZM21.75 8.74999C21.75 7.81053 22.0286 6.89216 22.5505 6.11102C23.0725 5.32989 23.8143 4.72107 24.6823 4.36155C25.5502 4.00204 26.5053 3.908 27.4267 4.09128C28.3481 4.27456 29.1945 4.72693 29.8588 5.39123C30.5231 6.05553 30.9755 6.9019 31.1587 7.82331C31.342 8.74472 31.2479 9.69979 30.8884 10.5677C30.5289 11.4357 29.9201 12.1775 29.139 12.6995C28.3578 13.2214 27.4395 13.5 26.5 13.5C25.2402 13.5 24.032 12.9996 23.1412 12.1088C22.2504 11.218 21.75 10.0098 21.75 8.74999Z" fill="white"/>
<path d="M3.67891 30.4688H5.35469L7.25898 36.4043L9.16328 30.4688H10.8391L7.93867 39H6.5793L3.67891 30.4688ZM2.65937 30.4688H4.39375L4.71601 37.0078V39H2.65937V30.4688ZM10.1242 30.4688H11.8645V39H9.80195V37.0078L10.1242 30.4688ZM15.375 32.6602V39H13.3945V32.6602H15.375ZM13.2773 31.0254C13.2773 30.7441 13.3789 30.5137 13.582 30.334C13.7852 30.1543 14.0488 30.0645 14.373 30.0645C14.6973 30.0645 14.9609 30.1543 15.1641 30.334C15.3672 30.5137 15.4687 30.7441 15.4687 31.0254C15.4687 31.3066 15.3672 31.5371 15.1641 31.7168C14.9609 31.8965 14.6973 31.9863 14.373 31.9863C14.0488 31.9863 13.7852 31.8965 13.582 31.7168C13.3789 31.5371 13.2773 31.3066 13.2773 31.0254ZM23.4801 36.1055H21.359V34.5176H23.4801C23.7691 34.5176 24.0035 34.4688 24.1832 34.3711C24.3629 34.2734 24.4937 34.1387 24.5758 33.9668C24.6617 33.791 24.7047 33.5938 24.7047 33.375C24.7047 33.1406 24.6617 32.9238 24.5758 32.7246C24.4937 32.5254 24.3629 32.3652 24.1832 32.2441C24.0035 32.1191 23.7691 32.0566 23.4801 32.0566H22.1324V39H20.0758V30.4688H23.4801C24.1637 30.4688 24.7516 30.5938 25.2437 30.8438C25.7398 31.0938 26.1207 31.4375 26.3863 31.875C26.652 32.3086 26.7848 32.8047 26.7848 33.3633C26.7848 33.9141 26.652 34.3945 26.3863 34.8047C26.1207 35.2148 25.7398 35.5352 25.2437 35.7656C24.7516 35.9922 24.1637 36.1055 23.4801 36.1055ZM30.9867 39.1172C30.4711 39.1172 30.0102 39.0371 29.6039 38.877C29.1977 38.7129 28.8539 38.4883 28.5727 38.2031C28.2953 37.918 28.0824 37.5898 27.934 37.2188C27.7895 36.8477 27.7172 36.4551 27.7172 36.041V35.8184C27.7172 35.3535 27.7816 34.9238 27.9105 34.5293C28.0395 34.1309 28.2309 33.7832 28.4848 33.4863C28.7387 33.1895 29.057 32.959 29.4398 32.7949C29.8227 32.627 30.268 32.543 30.7758 32.543C31.225 32.543 31.6273 32.6152 31.9828 32.7598C32.3383 32.9043 32.6391 33.1113 32.8852 33.3809C33.1352 33.6504 33.3246 33.9766 33.4535 34.3594C33.5863 34.7422 33.6527 35.1719 33.6527 35.6484V36.4512H28.473V35.2148H31.725V35.0625C31.7289 34.8516 31.6918 34.6719 31.6137 34.5234C31.5395 34.375 31.4301 34.2617 31.2855 34.1836C31.141 34.1055 30.9652 34.0664 30.7582 34.0664C30.5434 34.0664 30.3656 34.1133 30.225 34.207C30.0883 34.3008 29.9809 34.4297 29.9027 34.5938C29.8285 34.7539 29.7758 34.9395 29.7445 35.1504C29.7133 35.3613 29.6977 35.584 29.6977 35.8184V36.041C29.6977 36.2754 29.7289 36.4883 29.7914 36.6797C29.8578 36.8711 29.9516 37.0352 30.0727 37.1719C30.1977 37.3047 30.3461 37.4082 30.518 37.4824C30.6937 37.5566 30.893 37.5938 31.1156 37.5938C31.3852 37.5938 31.6508 37.543 31.9125 37.4414C32.1742 37.3398 32.3988 37.1719 32.5863 36.9375L33.4828 38.0039C33.3539 38.1875 33.1703 38.3652 32.932 38.5371C32.6977 38.709 32.4164 38.8496 32.0883 38.959C31.7602 39.0645 31.393 39.1172 30.9867 39.1172ZM36.6477 34.2305V39H34.673V32.6602H36.5187L36.6477 34.2305ZM38.5227 32.6133L38.4875 34.4473C38.4094 34.4395 38.3039 34.4297 38.1711 34.418C38.0383 34.4062 37.927 34.4004 37.8371 34.4004C37.6066 34.4004 37.4074 34.4277 37.2395 34.4824C37.0754 34.5332 36.9387 34.6113 36.8293 34.7168C36.7238 34.8184 36.6457 34.9473 36.5949 35.1035C36.548 35.2598 36.5266 35.4414 36.5305 35.6484L36.173 35.4141C36.173 34.9883 36.2141 34.6016 36.2961 34.2539C36.382 33.9023 36.5031 33.5996 36.6594 33.3457C36.8156 33.0879 37.0051 32.8906 37.2277 32.7539C37.4504 32.6133 37.7004 32.543 37.9777 32.543C38.0754 32.543 38.1711 32.5488 38.2648 32.5605C38.3625 32.5723 38.4484 32.5898 38.5227 32.6133ZM41.8457 39H39.8594V32.4961C39.8594 31.9297 39.9766 31.4531 40.2109 31.0664C40.4492 30.6758 40.791 30.3809 41.2363 30.1816C41.6816 29.9785 42.2207 29.877 42.8535 29.877C43.2129 29.877 43.5586 29.9082 43.8906 29.9707C44.2227 30.0332 44.5664 30.1152 44.9219 30.2168L44.6465 31.7754C44.416 31.7129 44.1738 31.6543 43.9199 31.5996C43.6699 31.5449 43.3555 31.5176 42.9766 31.5176C42.6211 31.5176 42.3438 31.6016 42.1445 31.7695C41.9453 31.9375 41.8457 32.1797 41.8457 32.4961V39ZM43.0879 32.6602V34.0312H38.9453V32.6602H43.0879ZM45.8242 32.6602V39H43.8438V32.6602H45.8242ZM49.3289 30V39H47.3484V30H49.3289Z" fill="white"/>
</svg>
