<svg width="43" height="43" viewBox="0 0 43 43" fill="none" xmlns="http://www.w3.org/2000/svg">
<path d="M22.7029 5.09327L13.741 6.50065C13.5628 6.52864 13.4131 6.64967 13.3484 6.81807C13.2557 7.05949 13.3611 7.32825 13.5848 7.44533L13.6384 7.46958L17.4409 8.9292L9.76824 17.9205L12.0698 19.8845L19.7424 10.8932L21.7819 14.4186C21.8609 14.5553 21.9985 14.6458 22.1526 14.6661L22.2194 14.6704C22.478 14.6698 22.6908 14.4747 22.7193 14.2238L22.7226 14.165L22.7029 5.09327Z" fill="white"/>
<path d="M18.5515 24.1664L27.5256 22.8391C27.704 22.8127 27.8548 22.693 27.9209 22.5252C28.0158 22.2846 27.9128 22.0149 27.6902 21.8959L27.6367 21.8711L23.8475 20.3776L31.6001 11.4552L29.3162 9.47074L21.5636 18.3932L19.5557 14.8497C19.4778 14.7123 19.341 14.6206 19.1872 14.5989L19.1204 14.594C18.8618 14.5923 18.6473 14.7855 18.6165 15.0361L18.6127 15.0949L18.5515 24.1664Z" fill="white"/>
<path d="M4.05469 37.1055H1.93359V35.5176H4.05469C4.34375 35.5176 4.57812 35.4688 4.75781 35.3711C4.9375 35.2734 5.06836 35.1387 5.15039 34.9668C5.23633 34.791 5.2793 34.5938 5.2793 34.375C5.2793 34.1406 5.23633 33.9238 5.15039 33.7246C5.06836 33.5254 4.9375 33.3652 4.75781 33.2441C4.57812 33.1191 4.34375 33.0566 4.05469 33.0566H2.70703V40H0.650391V31.4688H4.05469C4.73828 31.4688 5.32617 31.5938 5.81836 31.8438C6.31445 32.0938 6.69531 32.4375 6.96094 32.875C7.22656 33.3086 7.35938 33.8047 7.35938 34.3633C7.35938 34.9141 7.22656 35.3945 6.96094 35.8047C6.69531 36.2148 6.31445 36.5352 5.81836 36.7656C5.32617 36.9922 4.73828 37.1055 4.05469 37.1055ZM12.2762 38.459V33.6602H14.2566V40H12.4051L12.2762 38.459ZM12.4637 37.1699L12.9793 37.1582C12.9793 37.584 12.9285 37.9785 12.827 38.3418C12.7254 38.7012 12.575 39.0137 12.3758 39.2793C12.1805 39.5449 11.9383 39.752 11.6492 39.9004C11.3641 40.0449 11.034 40.1172 10.659 40.1172C10.3465 40.1172 10.0594 40.0742 9.79766 39.9883C9.53984 39.8984 9.31719 39.7598 9.12969 39.5723C8.94219 39.3809 8.7957 39.1367 8.69023 38.8398C8.58867 38.5391 8.53789 38.1797 8.53789 37.7617V33.6602H10.5125V37.7734C10.5125 37.9141 10.5301 38.0352 10.5652 38.1367C10.6004 38.2383 10.6512 38.3242 10.7176 38.3945C10.784 38.4609 10.866 38.5117 10.9637 38.5469C11.0652 38.5781 11.1805 38.5938 11.3094 38.5938C11.6062 38.5938 11.8387 38.5312 12.0066 38.4062C12.1746 38.2812 12.2918 38.1113 12.3582 37.8965C12.4285 37.6816 12.4637 37.4395 12.4637 37.1699ZM15.5641 31H17.5387V38.4414L17.3336 40H15.5641V31ZM21.4293 36.7598V36.8828C21.4293 37.3633 21.3805 37.8008 21.2828 38.1953C21.1852 38.5898 21.0348 38.9316 20.8316 39.2207C20.6285 39.5059 20.3727 39.7266 20.0641 39.8828C19.7555 40.0391 19.3902 40.1172 18.9684 40.1172C18.5855 40.1172 18.2574 40.0352 17.984 39.8711C17.7105 39.7031 17.482 39.4727 17.2984 39.1797C17.1148 38.8828 16.9664 38.541 16.8531 38.1543C16.7398 37.7637 16.65 37.3457 16.5836 36.9004V36.7539C16.65 36.3125 16.7398 35.8984 16.8531 35.5117C16.9664 35.1211 17.1148 34.7793 17.2984 34.4863C17.482 34.1895 17.7086 33.959 17.9781 33.7949C18.2516 33.627 18.5777 33.543 18.9566 33.543C19.3824 33.543 19.7496 33.623 20.0582 33.7832C20.3707 33.9434 20.6285 34.168 20.8316 34.457C21.0348 34.7461 21.1852 35.0859 21.2828 35.4766C21.3805 35.8672 21.4293 36.2949 21.4293 36.7598ZM19.4547 36.8828V36.7598C19.4547 36.5293 19.441 36.3125 19.4137 36.1094C19.3863 35.9062 19.3375 35.7266 19.2672 35.5703C19.1969 35.4141 19.0973 35.291 18.9684 35.2012C18.8395 35.1113 18.6715 35.0664 18.4645 35.0664C18.2535 35.0664 18.0758 35.1016 17.9312 35.1719C17.7906 35.2422 17.6773 35.3438 17.5914 35.4766C17.5094 35.6055 17.4508 35.7656 17.4156 35.957C17.3805 36.1445 17.3648 36.3574 17.3687 36.5957V37.0586C17.3609 37.3828 17.3902 37.6602 17.4566 37.8906C17.523 38.1211 17.6383 38.2969 17.8023 38.418C17.9664 38.5391 18.191 38.5996 18.4762 38.5996C18.6871 38.5996 18.857 38.5586 18.9859 38.4766C19.1187 38.3945 19.2184 38.2773 19.2848 38.125C19.3512 37.9727 19.3961 37.791 19.4195 37.5801C19.443 37.3691 19.4547 37.1367 19.4547 36.8828ZM24.5941 31V40H22.6137V31H24.5941ZM28.0988 33.6602V40H26.1184V33.6602H28.0988ZM26.0012 32.0254C26.0012 31.7441 26.1027 31.5137 26.3059 31.334C26.509 31.1543 26.7727 31.0645 27.0969 31.0645C27.4211 31.0645 27.6848 31.1543 27.8879 31.334C28.091 31.5137 28.1926 31.7441 28.1926 32.0254C28.1926 32.3066 28.091 32.5371 27.8879 32.7168C27.6848 32.8965 27.4211 32.9863 27.0969 32.9863C26.7727 32.9863 26.509 32.8965 26.3059 32.7168C26.1027 32.5371 26.0012 32.3066 26.0012 32.0254ZM32.1953 38.5938C32.3789 38.5938 32.5352 38.5605 32.6641 38.4941C32.7969 38.4238 32.8965 38.3262 32.9629 38.2012C33.0332 38.0723 33.0664 37.918 33.0625 37.7383H34.9199C34.9238 38.2148 34.8066 38.6328 34.5684 38.9922C34.334 39.3477 34.0137 39.625 33.6074 39.8242C33.2051 40.0195 32.75 40.1172 32.2422 40.1172C31.7461 40.1172 31.3125 40.0371 30.9414 39.877C30.5703 39.7129 30.2598 39.4863 30.0098 39.1973C29.7637 38.9043 29.5781 38.5625 29.4531 38.1719C29.332 37.7812 29.2715 37.3574 29.2715 36.9004V36.7656C29.2715 36.3086 29.332 35.8848 29.4531 35.4941C29.5781 35.0996 29.7637 34.7578 30.0098 34.4688C30.2598 34.1758 30.5684 33.9492 30.9355 33.7891C31.3066 33.625 31.7383 33.543 32.2305 33.543C32.7578 33.543 33.2227 33.6426 33.625 33.8418C34.0312 34.041 34.3496 34.3301 34.5801 34.709C34.8105 35.0879 34.9238 35.5469 34.9199 36.0859H33.0625C33.0664 35.8945 33.0371 35.7227 32.9746 35.5703C32.9121 35.418 32.8145 35.2969 32.6816 35.207C32.5527 35.1133 32.3867 35.0664 32.1836 35.0664C31.9805 35.0664 31.8164 35.1113 31.6914 35.2012C31.5664 35.291 31.4707 35.416 31.4043 35.5762C31.3418 35.7324 31.2988 35.9121 31.2754 36.1152C31.2559 36.3184 31.2461 36.5352 31.2461 36.7656V36.9004C31.2461 37.1348 31.2559 37.3555 31.2754 37.5625C31.2988 37.7656 31.3438 37.9453 31.4102 38.1016C31.4766 38.2539 31.5723 38.375 31.6973 38.4648C31.8223 38.5508 31.9883 38.5938 32.1953 38.5938ZM39.2566 38.4062V35.793C39.2566 35.6133 39.2313 35.459 39.1805 35.3301C39.1297 35.2012 39.0496 35.1016 38.9402 35.0312C38.8309 34.957 38.6844 34.9199 38.5008 34.9199C38.3523 34.9199 38.2254 34.9453 38.1199 34.9961C38.0145 35.0469 37.9344 35.123 37.8797 35.2246C37.825 35.3262 37.7977 35.4551 37.7977 35.6113H35.823C35.823 35.3184 35.8875 35.0469 36.0164 34.7969C36.1492 34.543 36.3367 34.3223 36.5789 34.1348C36.825 33.9473 37.118 33.8027 37.4578 33.7012C37.8016 33.5957 38.1844 33.543 38.6063 33.543C39.1102 33.543 39.5594 33.627 39.9539 33.7949C40.3523 33.9629 40.6668 34.2148 40.8973 34.5508C41.1277 34.8828 41.243 35.3008 41.243 35.8047V38.4004C41.243 38.8145 41.2664 39.1289 41.3133 39.3438C41.3602 39.5547 41.4266 39.7402 41.5125 39.9004V40H39.532C39.4383 39.8047 39.368 39.5664 39.3211 39.2852C39.2781 39 39.2566 38.707 39.2566 38.4062ZM39.4969 36.127L39.5086 37.1816H38.6355C38.452 37.1816 38.2957 37.207 38.1668 37.2578C38.0418 37.3086 37.9402 37.3789 37.8621 37.4688C37.7879 37.5547 37.7332 37.6523 37.698 37.7617C37.6668 37.8711 37.6512 37.9863 37.6512 38.1074C37.6512 38.2246 37.6785 38.3301 37.7332 38.4238C37.7918 38.5137 37.8699 38.584 37.9676 38.6348C38.0652 38.6855 38.1746 38.7109 38.2957 38.7109C38.5145 38.7109 38.7 38.6699 38.8523 38.5879C39.0086 38.502 39.1277 38.3984 39.2098 38.2773C39.2918 38.1562 39.3328 38.043 39.3328 37.9375L39.7664 38.7461C39.6883 38.9023 39.5984 39.0605 39.4969 39.2207C39.3992 39.3809 39.2762 39.5293 39.1277 39.666C38.9832 39.7988 38.8055 39.9082 38.5945 39.9941C38.3836 40.0762 38.1277 40.1172 37.827 40.1172C37.4363 40.1172 37.077 40.0371 36.7488 39.877C36.4246 39.7168 36.1648 39.4941 35.9695 39.209C35.7742 38.9199 35.6766 38.5879 35.6766 38.2129C35.6766 37.8848 35.7352 37.5918 35.8523 37.334C35.9734 37.0762 36.1551 36.8574 36.3973 36.6777C36.6395 36.498 36.948 36.3613 37.323 36.2676C37.698 36.1738 38.1395 36.127 38.6473 36.127H39.4969Z" fill="#FDFEFF"/>
</svg>
